<svg xmlns="http://www.w3.org/2000/svg" width="512" height="512" viewBox="0 0 512 512">
  <defs>
    <linearGradient id="grad" x1="0%" y1="0%" x2="100%" y2="100%">
      <stop offset="0%" style="stop-color:#8B5CF6;stop-opacity:1" />
      <stop offset="100%" style="stop-color:#3B82F6;stop-opacity:1" />
    </linearGradient>
  </defs>
  <rect width="512" height="512" rx="100" fill="url(#grad)"/>
  <!-- Hanger icon -->
  <path d="M256 80 C276 80 292 96 292 116 L292 140 L380 200 C400 212 400 240 380 252 L140 252 C120 240 120 212 140 200 L228 140 L228 116 C228 96 244 80 256 80 Z M256 100 C254 100 248 106 248 116 L248 160 L160 210 L160 232 L352 232 L352 210 L264 160 L264 116 C264 106 262 100 256 100 Z" fill="white" opacity="0.95"/>
  <!-- Sparkles -->
  <circle cx="420" cy="120" r="16" fill="white" opacity="0.8"/>
  <circle cx="380" cy="80" r="10" fill="white" opacity="0.6"/>
  <circle cx="92" cy="420" r="14" fill="white" opacity="0.7"/>
  <circle cx="130" cy="380" r="8" fill="white" opacity="0.5"/>
  <!-- AI text -->
  <text x="256" y="380" font-family="Arial, sans-serif" font-size="80" font-weight="bold" fill="white" text-anchor="middle">AI</text>
</svg>
